<?xml version="1.0" standalone="no"?>
<!DOCTYPE svg PUBLIC "-//W3C//DTD SVG 20010904//EN"
 "http://www.w3.org/TR/2001/REC-SVG-20010904/DTD/svg10.dtd">
<svg version="1.0" xmlns="http://www.w3.org/2000/svg"
 width="700.000000pt" height="700.000000pt" viewBox="0 0 700.000000 700.000000"
 preserveAspectRatio="xMidYMid meet">
<metadata>
Created by potrace 1.14, written by Peter Selinger 2001-2017
</metadata>
<g transform="translate(0.000000,700.000000) scale(0.100000,-0.100000)"
fill="#000000" stroke="none">
<path d="M52 6992 c-15 -2 -28 -15 -37 -35 -10 -26 -13 -675 -13 -3432 -1
-1870 1 -3419 4 -3443 4 -30 12 -47 28 -57 21 -14 412 -16 3463 -16 1892 -1
3450 2 3461 6 14 4 25 19 31 43 13 50 12 6834 0 6884 -8 32 -15 39 -47 47 -35
9 -6835 12 -6890 3z"/>
</g>
</svg>
